<svg width="78" height="78" viewBox="0 0 78 78" fill="none" xmlns="http://www.w3.org/2000/svg">
<g filter="url(#filter0_d_189_2684)">
<rect x="4" y="4" width="69.9636" height="70" rx="4" fill="url(#paint0_radial_189_2684)" shape-rendering="crispEdges"/>
</g>
<g filter="url(#filter1_d_189_2684)">
<path d="M38.9936 61.164C37.3552 61.164 35.7168 61.158 34.0776 61.1701C33.7877 61.1727 33.6669 61.1347 33.6359 60.7922C33.4599 58.8182 33.2407 56.8476 33.0526 54.8745C33.0293 54.626 32.8809 54.5829 32.7049 54.513C31.2305 53.9272 29.857 53.1584 28.6111 52.1766C28.373 51.9894 28.2013 52.0049 27.958 52.1145C26.1816 52.9151 24.3974 53.6985 22.6244 54.5061C22.325 54.6424 22.1904 54.5949 22.0274 54.3137C20.3985 51.5123 18.7584 48.7169 17.1105 45.9259C16.9604 45.6722 16.9535 45.5489 17.2226 45.3625C18.8153 44.259 20.3873 43.1254 21.9773 42.0176C22.2275 41.8433 22.3336 41.6897 22.2827 41.3619C22.042 39.8184 22.0558 38.268 22.2905 36.7245C22.3311 36.4579 22.2439 36.3423 22.0489 36.2051C20.4278 35.0671 18.817 33.9145 17.1916 32.7817C16.9621 32.6221 16.9535 32.5116 17.088 32.2847C18.7497 29.4687 20.4071 26.6509 22.0455 23.821C22.2206 23.519 22.3656 23.5501 22.6175 23.664C24.3939 24.4638 26.1773 25.2497 27.9511 26.0547C28.2211 26.1772 28.4032 26.1548 28.6405 25.9684C29.8535 25.0151 31.1847 24.2576 32.623 23.6976C32.9068 23.5872 33.0354 23.4561 33.0656 23.1265C33.2433 21.1672 33.4581 19.2104 33.6479 17.2519C33.6686 17.0345 33.7549 17.0009 33.943 17.0017C37.3069 17.006 40.6708 17.0078 44.0339 17C44.2806 17 44.335 17.0837 44.3566 17.3149C44.5472 19.3019 44.7569 21.2879 44.9493 23.2749C44.9674 23.4595 45.0287 23.5553 45.1978 23.62C46.7481 24.2153 48.1795 25.0246 49.4788 26.0582C49.6876 26.2247 49.842 26.1418 50.0258 26.0599C51.8177 25.261 53.6132 24.4689 55.4008 23.6597C55.6769 23.5346 55.8046 23.5613 55.9651 23.8374C57.6 26.6526 59.2479 29.4592 60.9035 32.2614C61.0476 32.5065 61.0424 32.6221 60.7957 32.7938C59.1814 33.9171 57.5853 35.0663 55.9711 36.1887C55.733 36.3544 55.6769 36.5045 55.7192 36.7849C55.9521 38.3293 55.9478 39.8788 55.714 41.4223C55.6717 41.7009 55.7589 41.8286 55.9694 41.9762C57.5801 43.1038 59.1788 44.2495 60.7931 45.3729C61.0355 45.542 61.0536 45.6541 60.9061 45.9035C59.2505 48.7057 57.6026 51.5131 55.9676 54.3275C55.8106 54.5975 55.6881 54.6398 55.406 54.5113C53.633 53.7054 51.8488 52.9238 50.075 52.1197C49.7903 51.9903 49.5961 52.0153 49.3468 52.212C48.1096 53.1835 46.7473 53.9427 45.284 54.5173C45.0813 54.5967 44.9691 54.6812 44.945 54.9323C44.7586 56.9201 44.5429 58.9044 44.3574 60.8923C44.3307 61.1744 44.1952 61.1657 43.9959 61.1649C42.3291 61.1614 40.6613 61.1632 38.9936 61.1632V61.164ZM46.9129 39.9487C46.9621 40.1911 46.8819 40.3844 46.8474 40.5793C46.1175 44.7577 41.8649 47.7118 37.6891 46.9595C35.8428 46.6265 34.2907 45.7818 33.0336 44.3902C32.9301 44.2754 32.8637 44.0839 32.6359 44.2789C31.9819 44.8388 31.3081 45.3754 30.6421 45.9207C33.0457 48.9645 37.3276 50.5581 41.1911 49.6556C46.0019 48.5323 48.7601 45.3608 49.7773 40.5526C50.1034 40.8235 50.4399 41.0875 50.7574 41.3731C50.9248 41.5232 51.0197 41.5198 51.1638 41.3386C51.6297 40.7553 52.1085 40.1807 52.5977 39.6165C52.7513 39.4388 52.7616 39.3447 52.5675 39.1851C51.4442 38.2671 50.3364 37.3293 49.2165 36.4079C48.6747 35.9618 48.0949 35.9083 47.5005 36.2672C46.2486 37.0239 45.0105 37.8047 43.7604 38.5639C43.5809 38.6726 43.5611 38.7511 43.6715 38.9246C44.0796 39.5656 44.4851 40.2092 44.8665 40.8666C45.0045 41.1048 45.1158 41.059 45.2987 40.9426C45.8276 40.6061 46.3659 40.2834 46.9138 39.9478L46.9129 39.9487ZM28.2721 37.6528C27.9045 37.3474 27.5775 37.0929 27.2712 36.816C27.1013 36.6624 26.996 36.6296 26.8321 36.8367C26.3688 37.4225 25.8848 37.9919 25.4008 38.5605C25.2731 38.7106 25.2205 38.8003 25.4137 38.9582C26.5586 39.896 27.6854 40.8546 28.8285 41.7941C29.335 42.2108 29.9363 42.2445 30.5127 41.8951C31.7507 41.1436 32.9784 40.3749 34.2156 39.6208C34.3916 39.5138 34.4632 39.4388 34.3287 39.2317C33.9154 38.5941 33.5142 37.9479 33.1311 37.2913C33.0069 37.0782 32.9094 37.0955 32.7325 37.2077C32.1942 37.5502 31.6472 37.8789 31.076 38.2309C31.076 38.1205 31.0683 38.0627 31.0778 38.0066C31.1097 37.8081 31.1347 37.608 31.1839 37.4139C31.9431 34.4045 33.7765 32.3287 36.7444 31.4418C39.7365 30.5471 42.4153 31.29 44.6715 33.4659C44.8578 33.6453 44.9588 33.7083 45.1745 33.4978C45.6887 32.9965 46.2219 32.5142 46.7697 32.0501C46.9983 31.8568 46.9621 31.7498 46.7723 31.5609C44.1115 28.9148 40.9124 27.8355 37.2206 28.4282C32.5703 29.1753 28.9864 32.9033 28.2712 37.652L28.2721 37.6528Z" fill="#4205F0"/>
</g>
<defs>
<filter id="filter0_d_189_2684" x="0" y="0" width="77.9636" height="78" filterUnits="userSpaceOnUse" color-interpolation-filters="sRGB">
<feFlood flood-opacity="0" result="BackgroundImageFix"/>
<feColorMatrix in="SourceAlpha" type="matrix" values="0 0 0 0 0 0 0 0 0 0 0 0 0 0 0 0 0 0 127 0" result="hardAlpha"/>
<feOffset/>
<feGaussianBlur stdDeviation="2"/>
<feComposite in2="hardAlpha" operator="out"/>
<feColorMatrix type="matrix" values="0 0 0 0 0.25935 0 0 0 0 0.019618 0 0 0 0 0.941667 0 0 0 0.4 0"/>
<feBlend mode="normal" in2="BackgroundImageFix" result="effect1_dropShadow_189_2684"/>
<feBlend mode="normal" in="SourceGraphic" in2="effect1_dropShadow_189_2684" result="shape"/>
</filter>
<filter id="filter1_d_189_2684" x="7" y="7" width="64" height="64.1704" filterUnits="userSpaceOnUse" color-interpolation-filters="sRGB">
<feFlood flood-opacity="0" result="BackgroundImageFix"/>
<feColorMatrix in="SourceAlpha" type="matrix" values="0 0 0 0 0 0 0 0 0 0 0 0 0 0 0 0 0 0 127 0" result="hardAlpha"/>
<feOffset/>
<feGaussianBlur stdDeviation="5"/>
<feComposite in2="hardAlpha" operator="out"/>
<feColorMatrix type="matrix" values="0 0 0 0 0.25935 0 0 0 0 0.019618 0 0 0 0 0.941667 0 0 0 0.3 0"/>
<feBlend mode="normal" in2="BackgroundImageFix" result="effect1_dropShadow_189_2684"/>
<feBlend mode="normal" in="SourceGraphic" in2="effect1_dropShadow_189_2684" result="shape"/>
</filter>
<radialGradient id="paint0_radial_189_2684" cx="0" cy="0" r="1" gradientUnits="userSpaceOnUse" gradientTransform="translate(38.9818 39) rotate(86.5953) scale(58.904 58.8735)">
<stop stop-color="#FDFBFB"/>
<stop offset="1" stop-color="#FDFBFB" stop-opacity="0"/>
</radialGradient>
</defs>
</svg>
