<svg width="79" height="78" viewBox="0 0 79 78" fill="none" xmlns="http://www.w3.org/2000/svg">
<g filter="url(#filter0_d_32_131)">
<rect x="4.79125" y="4" width="69.9636" height="70" rx="4" fill="url(#paint0_radial_32_131)" shape-rendering="crispEdges"/>
</g>
<g filter="url(#filter1_d_32_131)">
<path d="M59.078 38.0121C59.7656 38.0121 60.3817 38.0138 60.997 38.0121C61.3128 38.0112 61.6595 38.0482 61.7387 38.3866C61.7955 38.6277 61.7447 38.9669 61.6062 39.1701C59.6176 42.081 57.6083 44.9772 55.599 47.8735C55.2186 48.4219 54.7385 48.421 54.3607 47.8769C52.3523 44.9807 50.3422 42.0844 48.3535 39.1735C48.2141 38.9695 48.1599 38.6294 48.2158 38.3866C48.2941 38.0482 48.6426 38.0112 48.9585 38.0121C49.5849 38.0138 50.2122 38.0121 50.8886 38.0121V37.4542C50.8886 32.923 50.8886 28.3909 50.8886 23.8597C50.8886 23.0659 51.0521 22.9023 51.8394 22.9014C53.9606 22.9014 56.0817 22.9006 58.2029 22.9014C58.8698 22.9014 59.0754 23.1072 59.0754 23.7719C59.0763 28.3324 59.0754 32.892 59.0754 37.4525V38.0112L59.078 38.0121Z" fill="#4205F0"/>
<path d="M35.7023 29.7245C35.7023 29.4662 35.7023 29.2802 35.7023 29.0943C35.7023 25.7236 35.7023 22.3539 35.7023 18.9832C35.7023 18.1722 35.8762 18 36.6868 18C38.7941 18 40.9007 18 43.0081 18C43.6982 18 43.9047 18.204 43.9056 18.898C43.9073 22.297 43.9064 25.6961 43.9064 29.0951C43.9064 29.2811 43.9064 29.4671 43.9064 29.6935C44.0493 29.7047 44.1723 29.7219 44.2954 29.7219C44.8254 29.7254 45.3598 29.6883 45.8847 29.74C46.1239 29.7632 46.4484 29.9044 46.5482 30.0913C46.6471 30.2764 46.5886 30.6337 46.4656 30.8325C46.0362 31.5265 45.5491 32.1842 45.0845 32.8558C43.551 35.071 42.0193 37.288 40.485 39.5024C40.023 40.1696 39.5841 40.1687 39.1211 39.4998C37.1549 36.6604 35.1903 33.8192 33.2232 30.9806C33.0296 30.7017 32.8429 30.4245 33.0339 30.074C33.2224 29.7297 33.5554 29.7176 33.8944 29.7202C34.4787 29.7254 35.063 29.7219 35.7006 29.7219L35.7023 29.7245Z" fill="#4205F0"/>
<path d="M39.7949 42.8524C34.8737 42.8584 30.8749 46.8567 30.874 51.7719C30.8732 56.6957 34.9029 60.7112 39.8354 60.7017C44.7351 60.6922 48.7519 56.6535 48.7356 51.7529C48.7184 46.8308 44.7162 42.8463 39.7958 42.8515L39.7949 42.8524ZM40.9058 56.5252C40.7793 56.5485 40.652 56.5648 40.4523 56.5949C40.4523 57.0211 40.4618 57.4602 40.4498 57.8984C40.4377 58.3246 40.214 58.5906 39.8672 58.6277C39.4886 58.6681 39.1788 58.3797 39.1624 57.9372C39.1452 57.4972 39.159 57.0556 39.159 56.5657C38.5713 56.5657 38.03 56.5657 37.4896 56.5657C37.3459 56.5657 37.2022 56.5734 37.0602 56.5622C36.6635 56.5304 36.3993 56.2609 36.4045 55.9036C36.4097 55.542 36.6739 55.2794 37.08 55.276C38.1978 55.2665 39.3156 55.2803 40.4334 55.2682C41.2104 55.2596 41.7792 54.7775 41.8894 54.0698C42.0228 53.2114 41.4127 52.4641 40.5453 52.4322C39.93 52.409 39.307 52.4555 38.7021 52.3685C37.3304 52.1731 36.3546 50.9781 36.4011 49.6358C36.4484 48.2574 37.4457 47.1675 38.8303 47.0142C39.0962 46.985 39.1702 46.8868 39.1607 46.6406C39.147 46.2971 39.147 45.9518 39.1633 45.6083C39.184 45.1813 39.4163 44.9376 39.7846 44.9264C40.1727 44.9152 40.4308 45.1632 40.4489 45.6074C40.467 46.0491 40.4532 46.4916 40.4532 46.9918C41.1528 46.9918 41.7663 46.9893 42.3807 46.9918C42.9237 46.9953 43.2154 47.2277 43.2085 47.6419C43.2008 48.0482 42.8988 48.2824 42.3601 48.2841C41.3283 48.2876 40.2966 48.2807 39.2648 48.2867C38.3312 48.2919 37.7073 48.8584 37.7004 49.6909C37.6944 50.5338 38.3407 51.1218 39.2846 51.1296C39.6856 51.133 40.0875 51.1244 40.4885 51.133C41.9849 51.1658 43.0958 52.2153 43.206 53.6952C43.3066 55.0547 42.3222 56.2686 40.9093 56.5243L40.9058 56.5252Z" fill="#4205F0"/>
<path d="M19.5334 41.6195C19.5334 41.3612 19.5334 41.1752 19.5334 40.9892C19.5334 37.6186 19.5334 34.2488 19.5334 30.8782C19.5334 30.0671 19.7072 29.895 20.5178 29.895C22.6252 29.895 24.7317 29.895 26.8391 29.895C27.5292 29.895 27.7358 30.099 27.7366 30.7929C27.7383 34.192 27.7375 37.591 27.7375 40.9901C27.7375 41.1761 27.7375 41.362 27.7375 41.5885C27.8803 41.5997 28.0034 41.6169 28.1264 41.6169C28.6565 41.6203 29.1909 41.5833 29.7158 41.6349C29.955 41.6582 30.2794 41.7994 30.3792 41.9862C30.4782 42.1713 30.4197 42.5286 30.2966 42.7275C29.8672 43.4214 29.3802 44.0792 28.9155 44.7507C27.3821 46.966 25.8504 49.1829 24.3161 51.3973C23.854 52.0646 23.4152 52.0637 22.9522 51.3947C20.9859 48.5553 19.0214 45.7142 17.0543 42.8756C16.8607 42.5966 16.6739 42.3194 16.865 41.969C17.0534 41.6246 17.3864 41.6126 17.7255 41.6151C18.3098 41.6203 18.894 41.6169 19.5317 41.6169L19.5334 41.6195Z" fill="#4205F0"/>
</g>
<defs>
<filter id="filter0_d_32_131" x="0.791252" y="0" width="77.9636" height="78" filterUnits="userSpaceOnUse" color-interpolation-filters="sRGB">
<feFlood flood-opacity="0" result="BackgroundImageFix"/>
<feColorMatrix in="SourceAlpha" type="matrix" values="0 0 0 0 0 0 0 0 0 0 0 0 0 0 0 0 0 0 127 0" result="hardAlpha"/>
<feOffset/>
<feGaussianBlur stdDeviation="2"/>
<feComposite in2="hardAlpha" operator="out"/>
<feColorMatrix type="matrix" values="0 0 0 0 0.25935 0 0 0 0 0.019618 0 0 0 0 0.941667 0 0 0 0.4 0"/>
<feBlend mode="normal" in2="BackgroundImageFix" result="effect1_dropShadow_32_131"/>
<feBlend mode="normal" in="SourceGraphic" in2="effect1_dropShadow_32_131" result="shape"/>
</filter>
<filter id="filter1_d_32_131" x="6.78501" y="8" width="64.9766" height="62.7017" filterUnits="userSpaceOnUse" color-interpolation-filters="sRGB">
<feFlood flood-opacity="0" result="BackgroundImageFix"/>
<feColorMatrix in="SourceAlpha" type="matrix" values="0 0 0 0 0 0 0 0 0 0 0 0 0 0 0 0 0 0 127 0" result="hardAlpha"/>
<feOffset/>
<feGaussianBlur stdDeviation="5"/>
<feComposite in2="hardAlpha" operator="out"/>
<feColorMatrix type="matrix" values="0 0 0 0 0.25935 0 0 0 0 0.019618 0 0 0 0 0.941667 0 0 0 0.3 0"/>
<feBlend mode="normal" in2="BackgroundImageFix" result="effect1_dropShadow_32_131"/>
<feBlend mode="normal" in="SourceGraphic" in2="effect1_dropShadow_32_131" result="shape"/>
</filter>
<radialGradient id="paint0_radial_32_131" cx="0" cy="0" r="1" gradientUnits="userSpaceOnUse" gradientTransform="translate(39.773 39) rotate(86.5953) scale(58.904 58.8735)">
<stop stop-color="#FDFBFB"/>
<stop offset="1" stop-color="#FDFBFB" stop-opacity="0"/>
</radialGradient>
</defs>
</svg>
