<svg width="67" height="68" viewBox="0 0 67 68" fill="none" xmlns="http://www.w3.org/2000/svg">
<g filter="url(#filter0_d_111_343)">
<rect x="4" y="4" width="59" height="60" rx="4" fill="url(#paint0_radial_111_343)" shape-rendering="crispEdges"/>
</g>
<g filter="url(#filter1_d_111_343)">
<path d="M33.134 40.5C33.5189 41.1667 34.4811 41.1667 34.866 40.5L41.7942 28.5C42.1791 27.8333 41.698 27 40.9282 27H27.0718C26.302 27 25.8209 27.8333 26.2058 28.5L33.134 40.5Z" fill="#707070"/>
<path d="M33.134 40.5C33.5189 41.1667 34.4811 41.1667 34.866 40.5L41.7942 28.5C42.1791 27.8333 41.698 27 40.9282 27H27.0718C26.302 27 25.8209 27.8333 26.2058 28.5L33.134 40.5Z" fill="#707070"/>
<path d="M33.134 40.5C33.5189 41.1667 34.4811 41.1667 34.866 40.5L41.7942 28.5C42.1791 27.8333 41.698 27 40.9282 27H27.0718C26.302 27 25.8209 27.8333 26.2058 28.5L33.134 40.5Z" fill="#707070"/>
<path d="M33.134 40.5C33.5189 41.1667 34.4811 41.1667 34.866 40.5L41.7942 28.5C42.1791 27.8333 41.698 27 40.9282 27H27.0718C26.302 27 25.8209 27.8333 26.2058 28.5L33.134 40.5Z" fill="#4205F0"/>
</g>
<defs>
<filter id="filter0_d_111_343" x="0" y="0" width="67" height="68" filterUnits="userSpaceOnUse" color-interpolation-filters="sRGB">
<feFlood flood-opacity="0" result="BackgroundImageFix"/>
<feColorMatrix in="SourceAlpha" type="matrix" values="0 0 0 0 0 0 0 0 0 0 0 0 0 0 0 0 0 0 127 0" result="hardAlpha"/>
<feOffset/>
<feGaussianBlur stdDeviation="2"/>
<feComposite in2="hardAlpha" operator="out"/>
<feColorMatrix type="matrix" values="0 0 0 0 0.25935 0 0 0 0 0.019618 0 0 0 0 0.941667 0 0 0 0.4 0"/>
<feBlend mode="normal" in2="BackgroundImageFix" result="effect1_dropShadow_111_343"/>
<feBlend mode="normal" in="SourceGraphic" in2="effect1_dropShadow_111_343" result="shape"/>
</filter>
<filter id="filter1_d_111_343" x="19.0703" y="20" width="29.8594" height="28" filterUnits="userSpaceOnUse" color-interpolation-filters="sRGB">
<feFlood flood-opacity="0" result="BackgroundImageFix"/>
<feColorMatrix in="SourceAlpha" type="matrix" values="0 0 0 0 0 0 0 0 0 0 0 0 0 0 0 0 0 0 127 0" result="hardAlpha"/>
<feMorphology radius="3" operator="dilate" in="SourceAlpha" result="effect1_dropShadow_111_343"/>
<feOffset/>
<feGaussianBlur stdDeviation="2"/>
<feComposite in2="hardAlpha" operator="out"/>
<feColorMatrix type="matrix" values="0 0 0 0 0.141319 0 0 0 0 0.172333 0 0 0 0 0.916667 0 0 0 0.25 0"/>
<feBlend mode="normal" in2="BackgroundImageFix" result="effect1_dropShadow_111_343"/>
<feBlend mode="normal" in="SourceGraphic" in2="effect1_dropShadow_111_343" result="shape"/>
</filter>
<radialGradient id="paint0_radial_111_343" cx="0" cy="0" r="1" gradientUnits="userSpaceOnUse" gradientTransform="translate(33.5 34) rotate(90.3771) scale(29.8806 29.4484)">
<stop stop-color="#FDFBFB" stop-opacity="0.8"/>
<stop offset="1" stop-color="#FDFBFB"/>
</radialGradient>
</defs>
</svg>
