<svg width="78" height="78" viewBox="0 0 78 78" fill="none" xmlns="http://www.w3.org/2000/svg">
<g filter="url(#filter0_d_189_2254)">
<rect x="4" y="4" width="69.9636" height="70" rx="4" fill="url(#paint0_radial_189_2254)" shape-rendering="crispEdges"/>
</g>
<g filter="url(#filter1_d_189_2254)">
<path d="M37.9713 60.9878C30.8242 60.9878 23.6761 60.9829 16.529 60.9996C16.0939 60.9996 15.974 60.8974 16.0045 60.4692C16.0457 59.8994 16.031 59.3238 16.0074 58.7521C15.9956 58.4633 16.0968 58.4024 16.3669 58.4073C17.3806 58.4231 18.3953 58.3936 19.4091 58.4231C19.803 58.4348 19.8943 58.313 19.8933 57.9319C19.8815 52.2376 19.8914 46.5443 19.8737 40.85C19.8717 40.3746 19.9876 40.2518 20.4611 40.2646C21.8009 40.2999 23.1447 40.3088 24.4835 40.2616C25.011 40.243 25.0788 40.4217 25.0768 40.8854C25.0611 46.5306 25.0749 52.1748 25.0533 57.8199C25.0513 58.3337 25.1957 58.4368 25.676 58.425C27.0002 58.3906 28.3262 58.3828 29.6494 58.428C30.1759 58.4466 30.2505 58.2698 30.2495 57.8003C30.2358 48.7191 30.2446 39.6388 30.227 30.5576C30.226 30.039 30.3625 29.9123 30.8664 29.926C32.1905 29.9624 33.5166 29.9683 34.8398 29.9231C35.3653 29.9054 35.4389 30.0802 35.438 30.5508C35.4242 39.632 35.4321 48.7122 35.4154 57.7934C35.4154 58.3081 35.546 58.4407 36.0529 58.426C37.3927 58.3887 38.7355 58.3956 40.0763 58.424C40.4908 58.4329 40.5832 58.3121 40.5832 57.9103C40.5704 51.3654 40.5802 44.8204 40.5616 38.2754C40.5606 37.7912 40.6883 37.6871 41.1519 37.6979C42.5418 37.7313 43.9328 37.7254 45.3217 37.6998C45.7018 37.6929 45.7706 37.8089 45.7706 38.1644C45.7598 44.677 45.7627 51.1885 45.7627 57.7011C45.7627 58.1758 46.008 58.4132 46.4985 58.4132C47.7902 58.4132 49.0838 58.3857 50.3746 58.427C50.8785 58.4427 50.9463 58.2679 50.9453 57.8209C50.9315 50.0324 50.9345 42.2439 50.9374 34.4563C50.9374 33.7216 50.8353 33.8218 51.5975 33.8188C52.9383 33.8139 54.2801 33.8355 55.6209 33.807C56.0443 33.7982 56.1268 33.9377 56.1268 34.3326C56.116 42.1535 56.118 49.9744 56.1199 57.7954C56.1199 58.5085 56.0414 58.4093 56.7525 58.4123C57.7171 58.4172 58.6827 58.424 59.6473 58.4064C59.9312 58.4014 60.0039 58.4899 59.9951 58.7619C59.9754 59.367 59.9646 59.9741 59.998 60.5772C60.0176 60.9357 59.8939 60.9957 59.5629 60.9957C54.1495 60.9849 48.7351 60.9878 43.3218 60.9878C41.5389 60.9878 39.7561 60.9878 37.9732 60.9878H37.9713Z" fill="#4205F0"/>
<path d="M28.9529 20.9628C28.9578 18.7635 30.6631 17.0268 32.7671 17.0003C34.8997 16.9738 36.6707 18.6731 36.7051 20.8086C36.71 21.1357 36.8112 21.3489 37.0391 21.566C38.2709 22.7388 39.4948 23.9205 40.7099 25.112C40.9221 25.3202 41.0733 25.387 41.37 25.225C42.8748 24.4028 44.7422 24.6916 45.9229 25.9263C46.1429 26.1562 46.2716 26.1572 46.5171 25.9872C47.4572 25.335 48.409 24.6994 49.3658 24.0708C49.5789 23.9313 49.6595 23.7889 49.6585 23.5207C49.6516 21.4009 51.2066 19.736 53.3096 19.5837C55.3105 19.4383 57.1042 20.9648 57.3792 23.0463C57.6366 24.9961 56.2575 26.884 54.2428 27.273C53.0945 27.495 52.0219 27.2406 51.1132 26.4872C50.8382 26.2593 50.6683 26.2849 50.4031 26.4685C49.3952 27.1669 48.3746 27.8467 47.3531 28.5245C47.1468 28.661 47.0495 28.8083 47.023 29.0696C46.7961 31.2434 44.7687 32.8003 42.6086 32.4781C40.4378 32.155 38.9595 30.0981 39.374 27.9449C39.4368 27.6198 39.3858 27.4115 39.1451 27.1836C38.0057 26.1041 36.877 25.0118 35.7582 23.9097C35.5608 23.7152 35.4527 23.7358 35.2464 23.8969C33.829 25.003 32.0953 25.058 30.6002 24.0423C30.3831 23.895 30.2751 23.8832 30.0845 24.0806C28.8085 25.3949 27.5198 26.6974 26.2261 27.994C26.0346 28.1856 26.0218 28.3408 26.1082 28.5942C26.6328 30.1452 26.3499 31.5499 25.18 32.7011C24.071 33.7915 22.7115 34.1038 21.241 33.597C19.6939 33.0626 18.7971 31.9192 18.6252 30.2945C18.3502 27.6954 20.8265 25.3527 23.7046 26.2701C24.0946 26.3949 24.2881 26.3015 24.5366 26.0452C25.8361 24.7073 27.1455 23.3802 28.4598 22.0581C28.7889 21.7271 29.1543 21.4284 28.9529 20.9609V20.9628Z" fill="#4205F0"/>
</g>
<defs>
<filter id="filter0_d_189_2254" x="0" y="0" width="77.9636" height="78" filterUnits="userSpaceOnUse" color-interpolation-filters="sRGB">
<feFlood flood-opacity="0" result="BackgroundImageFix"/>
<feColorMatrix in="SourceAlpha" type="matrix" values="0 0 0 0 0 0 0 0 0 0 0 0 0 0 0 0 0 0 127 0" result="hardAlpha"/>
<feOffset/>
<feGaussianBlur stdDeviation="2"/>
<feComposite in2="hardAlpha" operator="out"/>
<feColorMatrix type="matrix" values="0 0 0 0 0.25935 0 0 0 0 0.019618 0 0 0 0 0.941667 0 0 0 0.4 0"/>
<feBlend mode="normal" in2="BackgroundImageFix" result="effect1_dropShadow_189_2254"/>
<feBlend mode="normal" in="SourceGraphic" in2="effect1_dropShadow_189_2254" result="shape"/>
</filter>
<filter id="filter1_d_189_2254" x="6" y="7" width="64" height="63.9995" filterUnits="userSpaceOnUse" color-interpolation-filters="sRGB">
<feFlood flood-opacity="0" result="BackgroundImageFix"/>
<feColorMatrix in="SourceAlpha" type="matrix" values="0 0 0 0 0 0 0 0 0 0 0 0 0 0 0 0 0 0 127 0" result="hardAlpha"/>
<feOffset/>
<feGaussianBlur stdDeviation="5"/>
<feComposite in2="hardAlpha" operator="out"/>
<feColorMatrix type="matrix" values="0 0 0 0 0.25935 0 0 0 0 0.019618 0 0 0 0 0.941667 0 0 0 0.3 0"/>
<feBlend mode="normal" in2="BackgroundImageFix" result="effect1_dropShadow_189_2254"/>
<feBlend mode="normal" in="SourceGraphic" in2="effect1_dropShadow_189_2254" result="shape"/>
</filter>
<radialGradient id="paint0_radial_189_2254" cx="0" cy="0" r="1" gradientUnits="userSpaceOnUse" gradientTransform="translate(38.9818 39) rotate(86.5953) scale(58.904 58.8735)">
<stop stop-color="#FDFBFB"/>
<stop offset="1" stop-color="#FDFBFB" stop-opacity="0"/>
</radialGradient>
</defs>
</svg>
