<svg width="79" height="78" viewBox="0 0 79 78" fill="none" xmlns="http://www.w3.org/2000/svg">
<g filter="url(#filter0_d_28_104)">
<rect x="4.60907" y="4" width="69.9636" height="70" rx="4" fill="url(#paint0_radial_28_104)" shape-rendering="crispEdges"/>
</g>
<g filter="url(#filter1_d_28_104)">
<g filter="url(#filter2_d_28_104)">
<path d="M61.0675 55.0878H56.1689C54.5356 55.2136 54.6613 56.093 54.6613 57.9787L43.9623 58.0264C43.9623 57.7336 43.984 56.9626 43.984 56.7219C43.984 55.9683 43.7326 55.0878 42.6022 55.0878C41.4718 55.0878 39.2371 55.0824 38.0796 55.0878C36.7531 55.0943 36.3434 55.2841 36.3206 56.5961C36.3163 56.8694 36.2708 57.7629 36.2708 58.0426L25.3919 58.1044V56.4703C25.3919 55.6332 24.889 55.0878 23.8843 55.0878C22.5025 55.0878 20.0608 55.0737 19.3618 55.0878C18.1577 55.1117 17.6147 55.6473 17.6028 56.8477C17.593 57.8019 17.7285 60.1658 17.7285 61.1211C17.7285 62.6294 18.2314 62.8809 19.6132 62.8809C19.9947 62.8809 24.5368 62.9005 24.5118 62.7552C25.5165 62.6294 25.5165 61.8758 25.4558 59.9608H36.2708C36.2708 60.259 36.3109 60.9519 36.3206 61.2479C36.3597 62.4407 36.7585 62.8647 37.9539 62.882C39.172 62.8994 41.384 62.8961 42.6022 62.882C43.7033 62.8701 43.9558 62.4743 43.984 61.3737C43.9916 61.0853 43.9623 60.2709 43.9623 59.95L54.7881 59.9912V61.6253C54.7881 62.5405 55.394 62.9124 56.1699 62.882C57.5518 62.882 59.8125 62.8994 60.944 62.882C62.2434 62.8625 62.5631 62.4244 62.5772 61.1221C62.588 60.1875 62.5772 58.2844 62.5772 57.3519C62.5772 55.4662 62.5772 55.09 61.0697 55.09L61.0675 55.0878Z" fill="#4205F0"/>
</g>
<g filter="url(#filter3_d_28_104)">
<path d="M42.8688 26.7389C42.2857 26.6522 41.6788 26.7216 41.0654 26.7216V29.7241C41.5975 29.7241 42.0971 29.7393 42.5967 29.7209C43.4031 29.6916 43.9916 29.1429 44.0642 28.3806C44.1411 27.5706 43.6729 26.8582 42.8698 26.7389H42.8688Z" fill="#4205F0"/>
<path d="M53.5613 27.6379C52.6108 22.1977 49.5037 18.4503 44.281 16.7489C39.1688 15.0845 34.4631 16.2078 30.6297 19.9846C26.4442 24.1072 25.5935 29.1288 27.3871 34.6405C28.7223 38.7426 30.9982 42.3382 33.5332 45.7842C33.9179 46.308 34.3124 46.8241 34.7156 47.3338L37.5865 50.7516C38.1403 51.3729 38.7071 51.9834 39.2826 52.5841C39.8993 53.2282 40.374 53.2445 40.9755 52.582C42.2576 51.1691 43.557 49.767 44.7665 48.2934C47.7111 44.7042 50.3447 40.908 52.147 36.5966C53.3456 33.7307 54.1097 30.7705 53.5624 27.64L53.5613 27.6379ZM37.1226 34.3217C37.1194 35.071 36.8203 35.4473 36.2404 35.4592C35.64 35.4722 35.2976 35.0688 35.2954 34.3065C35.29 31.5295 35.2878 28.7526 35.2976 25.9756C35.3008 25.0853 36.0551 24.5453 36.6696 25.0116C36.9135 25.197 37.0945 25.6123 37.1042 25.93C37.1497 27.3679 37.1237 28.8078 37.1248 30.2468C37.1248 31.6044 37.1291 32.963 37.1237 34.3206L37.1226 34.3217ZM42.5458 31.5566C42.0657 31.5632 41.5845 31.5566 41.0307 31.5566C41.0307 32.4111 41.0318 33.1972 41.0307 33.9823C41.0307 34.2252 41.0437 34.4724 41.0047 34.711C40.931 35.1686 40.6427 35.4288 40.1789 35.4548C39.7172 35.4809 39.3931 35.264 39.2674 34.8162C39.2089 34.6058 39.2035 34.3759 39.2024 34.1547C39.1981 31.497 39.1981 28.8404 39.2002 26.1827C39.2002 25.1276 39.4831 24.8478 40.5333 24.8457C41.2226 24.8446 41.9129 24.8305 42.6011 24.8511C44.5021 24.9097 45.9402 26.4039 45.9088 28.2689C45.8774 30.121 44.4381 31.5295 42.5458 31.5556V31.5566Z" fill="#4205F0"/>
</g>
</g>
<defs>
<filter id="filter0_d_28_104" x="0.60907" y="0" width="77.9636" height="78" filterUnits="userSpaceOnUse" color-interpolation-filters="sRGB">
<feFlood flood-opacity="0" result="BackgroundImageFix"/>
<feColorMatrix in="SourceAlpha" type="matrix" values="0 0 0 0 0 0 0 0 0 0 0 0 0 0 0 0 0 0 127 0" result="hardAlpha"/>
<feOffset/>
<feGaussianBlur stdDeviation="2"/>
<feComposite in2="hardAlpha" operator="out"/>
<feColorMatrix type="matrix" values="0 0 0 0 0.25935 0 0 0 0 0.019618 0 0 0 0 0.941667 0 0 0 0.4 0"/>
<feBlend mode="normal" in2="BackgroundImageFix" result="effect1_dropShadow_28_104"/>
<feBlend mode="normal" in="SourceGraphic" in2="effect1_dropShadow_28_104" result="shape"/>
</filter>
<filter id="filter1_d_28_104" x="14.6023" y="13" width="50.9797" height="52.8939" filterUnits="userSpaceOnUse" color-interpolation-filters="sRGB">
<feFlood flood-opacity="0" result="BackgroundImageFix"/>
<feColorMatrix in="SourceAlpha" type="matrix" values="0 0 0 0 0 0 0 0 0 0 0 0 0 0 0 0 0 0 127 0" result="hardAlpha"/>
<feOffset/>
<feGaussianBlur stdDeviation="1.5"/>
<feComposite in2="hardAlpha" operator="out"/>
<feColorMatrix type="matrix" values="0 0 0 0 0.25935 0 0 0 0 0.019618 0 0 0 0 0.941667 0 0 0 0.3 0"/>
<feBlend mode="normal" in2="BackgroundImageFix" result="effect1_dropShadow_28_104"/>
<feBlend mode="normal" in="SourceGraphic" in2="effect1_dropShadow_28_104" result="shape"/>
</filter>
<filter id="filter2_d_28_104" x="7.60229" y="45.0815" width="64.9797" height="27.8123" filterUnits="userSpaceOnUse" color-interpolation-filters="sRGB">
<feFlood flood-opacity="0" result="BackgroundImageFix"/>
<feColorMatrix in="SourceAlpha" type="matrix" values="0 0 0 0 0 0 0 0 0 0 0 0 0 0 0 0 0 0 127 0" result="hardAlpha"/>
<feOffset/>
<feGaussianBlur stdDeviation="5"/>
<feComposite in2="hardAlpha" operator="out"/>
<feColorMatrix type="matrix" values="0 0 0 0 0.25935 0 0 0 0 0.019618 0 0 0 0 0.941667 0 0 0 0.3 0"/>
<feBlend mode="normal" in2="BackgroundImageFix" result="effect1_dropShadow_28_104"/>
<feBlend mode="normal" in="SourceGraphic" in2="effect1_dropShadow_28_104" result="shape"/>
</filter>
<filter id="filter3_d_28_104" x="16.4999" y="6" width="47.2427" height="57.0731" filterUnits="userSpaceOnUse" color-interpolation-filters="sRGB">
<feFlood flood-opacity="0" result="BackgroundImageFix"/>
<feColorMatrix in="SourceAlpha" type="matrix" values="0 0 0 0 0 0 0 0 0 0 0 0 0 0 0 0 0 0 127 0" result="hardAlpha"/>
<feOffset/>
<feGaussianBlur stdDeviation="5"/>
<feComposite in2="hardAlpha" operator="out"/>
<feColorMatrix type="matrix" values="0 0 0 0 0.25935 0 0 0 0 0.019618 0 0 0 0 0.941667 0 0 0 0.3 0"/>
<feBlend mode="normal" in2="BackgroundImageFix" result="effect1_dropShadow_28_104"/>
<feBlend mode="normal" in="SourceGraphic" in2="effect1_dropShadow_28_104" result="shape"/>
</filter>
<radialGradient id="paint0_radial_28_104" cx="0" cy="0" r="1" gradientUnits="userSpaceOnUse" gradientTransform="translate(39.5909 39) rotate(86.5953) scale(58.904 58.8735)">
<stop stop-color="#FDFBFB"/>
<stop offset="1" stop-color="#FDFBFB" stop-opacity="0"/>
</radialGradient>
</defs>
</svg>
