<svg width="65" height="65" viewBox="0 0 65 65" fill="none" xmlns="http://www.w3.org/2000/svg">
<g filter="url(#filter0_d_203_350)">
<path d="M32.8015 10C37.809 10.058 42.5549 11.7892 46.6885 15.1903C46.981 15.431 47.2269 15.5214 47.6178 15.4415C49.6828 15.0225 51.7795 16.449 52.1756 18.5061C52.5911 20.6652 51.2358 22.7513 49.1418 23.1747C46.9634 23.6147 44.8834 22.2612 44.4442 20.1294C44.2501 19.1886 44.3696 18.2927 44.8316 17.4574C44.9616 17.2228 44.9309 17.128 44.7323 16.9716C40.8526 13.936 36.4599 12.4366 31.5313 12.6659C22.4745 13.0857 14.8397 19.6823 13.039 28.5995C12.2898 32.3079 12.642 35.9277 14.0263 39.4429C14.18 39.8329 14.0922 39.9629 13.7365 40.0877C13.1734 40.2862 12.6201 40.5163 12.0737 40.757C11.8409 40.8597 11.7232 40.8518 11.6231 40.5892C8.9836 33.6571 9.5484 26.9859 13.4273 20.6792C16.527 15.6383 21.0217 12.3549 26.7354 10.7677C28.6046 10.2486 30.5151 10.0149 32.8015 10Z" fill="#4205F0"/>
<path d="M32.5301 54.9681C27.1764 54.9031 22.4306 53.1666 18.2987 49.7638C18.0176 49.5328 17.7779 49.4511 17.4072 49.524C15.285 49.9421 13.2138 48.5139 12.8203 46.3917C12.4224 44.2476 13.8278 42.1703 15.9368 41.7838C18.1301 41.3824 20.1582 42.757 20.5728 44.9126C20.7459 45.8102 20.6369 46.6667 20.196 47.4589C20.0335 47.7514 20.1046 47.8612 20.3357 48.0413C24.1873 51.0383 28.5423 52.499 33.4242 52.3084C42.4328 51.9562 50.2801 45.1796 51.9789 36.3256C52.6886 32.6242 52.3531 29.0237 50.9802 25.5208C50.8467 25.1809 50.8467 25.0263 51.2367 24.9007C51.8182 24.7136 52.3812 24.4641 52.9398 24.2129C53.1814 24.104 53.2894 24.1286 53.3852 24.3868C56.4454 32.6769 55.1507 40.2677 49.5476 47.0496C46.0684 51.2605 41.5026 53.741 36.1147 54.673C34.9324 54.8776 33.7352 54.9743 32.5309 54.969L32.5301 54.9681Z" fill="#4205F0"/>
<path d="M26.1469 36.4362C23.6593 36.4362 21.2315 36.4327 18.8037 36.4423C18.5894 36.4423 18.5332 36.3536 18.4884 36.1806C17.8542 33.7229 17.8542 31.2652 18.4822 28.8058C18.5314 28.6126 18.6052 28.5265 18.8292 28.5274C21.1709 28.537 23.5118 28.537 25.8535 28.5291C26.0854 28.5291 26.1416 28.5818 26.1152 28.8198C25.8421 31.3452 25.8473 33.8713 26.146 36.4371L26.1469 36.4362Z" fill="#4205F0"/>
<path d="M42.6716 28.5335C43.8126 28.5335 44.9545 28.5423 46.0955 28.5265C46.3573 28.523 46.475 28.5959 46.5391 28.855C47.1381 31.2731 47.1399 33.6878 46.5391 36.1051C46.4776 36.3519 46.3766 36.445 46.1034 36.4432C43.8056 36.4301 41.5087 36.4336 39.2109 36.4388C38.979 36.4388 38.8498 36.4459 38.8859 36.1235C39.1564 33.701 39.1564 31.2758 38.8876 28.8532C38.8542 28.5528 38.9491 28.5247 39.2021 28.5274C40.358 28.5388 41.5139 28.5326 42.6699 28.5326L42.6716 28.5335Z" fill="#4205F0"/>
<path d="M32.4949 28.5335C33.621 28.5335 34.747 28.544 35.8731 28.5256C36.141 28.5212 36.2209 28.6055 36.249 28.8558C36.5213 31.2784 36.5222 33.6992 36.2473 36.1208C36.2174 36.3808 36.1226 36.4441 35.8661 36.4432C33.6289 36.4318 31.3917 36.43 29.1545 36.4441C28.8716 36.4458 28.7829 36.3553 28.7539 36.0918C28.5168 33.9337 28.4807 31.7738 28.6845 29.6121C28.717 29.2634 28.6547 28.797 28.8523 28.602C29.0754 28.3806 29.5462 28.5405 29.9081 28.5361C30.7707 28.5264 31.6332 28.5326 32.4966 28.5326L32.4949 28.5335Z" fill="#4205F0"/>
<path d="M45.3543 25.8993C43.1083 25.8993 40.9 25.8905 38.6918 25.909C38.3818 25.9116 38.3756 25.7351 38.3308 25.5445C37.9435 23.9046 37.4138 22.3182 36.5504 20.8601C35.8248 19.6348 34.9271 18.5913 33.4673 18.1179C37.3154 17.6321 43.8628 21.9186 45.3534 25.8976L45.3543 25.8993Z" fill="#4205F0"/>
<path d="M33.4189 46.8618C34.9306 46.3725 35.8195 45.3343 36.5433 44.1213C37.3883 42.7045 37.925 41.1629 38.2869 39.5634C38.38 39.1515 38.5381 39.0548 38.9413 39.0592C40.9308 39.0829 42.9203 39.0698 44.9098 39.0698H45.3428C44.0657 42.9074 37.5209 47.2052 33.4189 46.8618Z" fill="#4205F0"/>
<path d="M31.4813 18.1339C30.0206 18.6512 29.1431 19.6859 28.4334 20.8954C27.591 22.3307 27.0552 23.8863 26.6933 25.5025C26.6248 25.8073 26.5106 25.9118 26.183 25.9092C24.0178 25.8916 21.8535 25.9004 19.6848 25.9004C20.3726 22.4967 27.7763 17.5884 31.4813 18.1347V18.1339Z" fill="#4205F0"/>
<path d="M31.4592 46.8343C27.9098 47.4694 21.1876 43.0477 19.6663 39.1196C19.7769 39.0204 19.9131 39.0731 20.0334 39.0731C22.0677 39.0687 24.102 39.081 26.1354 39.0599C26.4973 39.0564 26.6282 39.1556 26.7038 39.5061C26.9919 40.8518 27.4293 42.1526 28.0547 43.3797C28.8145 44.8712 29.7447 46.2107 31.4584 46.8335L31.4592 46.8343Z" fill="#4205F0"/>
<path d="M32.4757 25.8993C31.5402 25.8993 30.6039 25.8905 29.6684 25.9046C29.3847 25.9089 29.2837 25.8694 29.3777 25.5514C29.7439 24.3182 30.155 23.1069 30.8252 21.9984C31.0378 21.6471 31.282 21.3212 31.5894 21.0445C32.2051 20.4894 32.798 20.492 33.4173 21.0542C33.9013 21.4943 34.228 22.0468 34.5214 22.6212C35.0001 23.5602 35.3365 24.5519 35.6281 25.562C35.7054 25.8281 35.672 25.9125 35.3708 25.9063C34.4063 25.8879 33.441 25.8993 32.4757 25.8993Z" fill="#4205F0"/>
<path d="M29.3239 39.083H35.7149C35.2195 40.7739 34.7566 42.4489 33.5576 43.7779C32.8514 44.5605 32.1478 44.535 31.4223 43.7498C30.6124 42.8732 30.1777 41.7866 29.7833 40.6852C29.5979 40.1678 29.4056 39.6487 29.323 39.083H29.3239Z" fill="#4205F0"/>
</g>
<defs>
<filter id="filter0_d_203_350" x="0" y="0" width="65" height="64.9692" filterUnits="userSpaceOnUse" color-interpolation-filters="sRGB">
<feFlood flood-opacity="0" result="BackgroundImageFix"/>
<feColorMatrix in="SourceAlpha" type="matrix" values="0 0 0 0 0 0 0 0 0 0 0 0 0 0 0 0 0 0 127 0" result="hardAlpha"/>
<feOffset/>
<feGaussianBlur stdDeviation="5"/>
<feComposite in2="hardAlpha" operator="out"/>
<feColorMatrix type="matrix" values="0 0 0 0 0.25935 0 0 0 0 0.019618 0 0 0 0 0.941667 0 0 0 0.3 0"/>
<feBlend mode="normal" in2="BackgroundImageFix" result="effect1_dropShadow_203_350"/>
<feBlend mode="normal" in="SourceGraphic" in2="effect1_dropShadow_203_350" result="shape"/>
</filter>
</defs>
</svg>
