<svg width="79" height="78" viewBox="0 0 79 78" fill="none" xmlns="http://www.w3.org/2000/svg">
<g filter="url(#filter0_d_35_147)">
<rect x="4.24463" y="4" width="69.9636" height="70" rx="4" fill="url(#paint0_radial_35_147)" shape-rendering="crispEdges"/>
</g>
<g filter="url(#filter1_d_35_147)">
<path d="M19.2932 28.2929V28.9829C19.2932 37.107 19.2932 45.2302 19.2932 53.3526C19.2932 55.0945 20.0141 55.8108 21.7551 55.8121C23.9092 55.8121 26.062 55.7971 28.2149 55.8296C28.5653 55.8296 29.0259 55.9549 29.2287 56.2053C29.4315 56.4558 29.4615 56.9279 29.3802 57.2572C29.27 57.7018 28.8394 57.8609 28.3788 57.8609H24.2209C23.2721 57.8609 22.3234 57.8696 21.3746 57.8609C19.0741 57.8308 17.3318 56.1252 17.2455 53.8172C17.238 53.6356 17.2455 53.4528 17.2455 53.2699C17.2455 43.3351 17.243 33.4044 17.238 23.4779C17.2317 21.791 17.7987 20.411 19.2969 19.5945C19.969 19.2347 20.7176 19.0414 21.4798 19.031C33.6491 18.9967 45.8188 18.9909 57.9889 19.0134C60.486 19.0134 62.2057 20.7666 62.207 23.2812C62.217 33.3764 62.217 43.4716 62.207 53.5667C62.207 56.1264 60.4547 57.8533 57.8938 57.8571C55.6496 57.8571 53.4054 57.8571 51.1612 57.8571C50.6869 57.8571 50.2851 57.7319 50.0623 57.2886C49.9893 57.1508 49.9498 56.9977 49.9472 56.8417C49.9446 56.6858 49.9788 56.5315 50.0471 56.3913C50.1155 56.2511 50.216 56.1291 50.3404 56.0352C50.4649 55.9413 50.6097 55.8781 50.7632 55.8509C51.0162 55.817 51.2718 55.8069 51.5267 55.8209C53.6432 55.8209 55.7598 55.8209 57.8763 55.8209C59.3658 55.8209 60.153 55.0469 60.1543 53.5667C60.1605 46.3197 60.1543 39.0727 60.1681 31.8257C60.1681 31.3097 59.944 31.2847 59.5422 31.2859C54.4518 31.2947 49.3614 31.2859 44.2722 31.2984C43.7624 31.319 43.2621 31.1564 42.8616 30.8401C41.869 30.0662 40.8515 29.3248 39.8226 28.5985C39.5792 28.418 39.2889 28.3115 38.9865 28.2917C32.5823 28.2741 26.178 28.27 19.7738 28.2792C19.6486 28.2704 19.5222 28.2804 19.2932 28.2929ZM19.3395 26.2054H19.9853C26.4413 26.2054 32.8985 26.1978 39.3545 26.2229C39.8019 26.2388 40.2358 26.3807 40.6061 26.6324C41.6625 27.3462 42.6588 28.1514 43.7065 28.879C43.9983 29.0814 44.3417 29.1965 44.6965 29.2109C49.6392 29.2309 54.5845 29.2184 59.5247 29.2347C60.0078 29.2347 60.1868 29.132 60.1768 28.6085C60.1368 26.9116 60.163 25.2135 60.163 23.5117C60.163 21.7685 59.4408 21.0472 57.7061 21.0472H21.7526C21.5699 21.0472 21.3872 21.0396 21.2057 21.0472C20.2519 21.1223 19.4221 21.7797 19.3595 22.6964C19.2781 23.8348 19.3395 24.9844 19.3395 26.2054Z" fill="#4205F0"/>
<path d="M62.2079 23.2774C62.2054 20.7681 60.4871 19.0126 57.9904 19.0101C45.8221 18.995 33.6538 18.9938 21.4855 19.0276C20.7521 19.0301 19.9462 19.2405 19.3029 19.5911C17.8049 20.4075 17.2354 21.7873 17.2379 23.479C17.2542 33.4085 17.2454 43.338 17.2454 53.2676C17.2454 53.4504 17.2442 53.6332 17.2504 53.8148C17.338 56.1162 19.0801 57.8216 21.3791 57.8479C22.3278 57.8592 23.2764 57.8504 24.225 57.8504C25.6117 57.8504 26.9983 57.8504 28.385 57.8504C28.843 57.8504 29.2736 57.6914 29.3837 57.2469C29.465 56.9176 29.43 56.433 29.2323 56.1964C29.0295 55.9534 28.569 55.8282 28.2185 55.8232C26.066 55.7907 23.9134 55.8082 21.7608 55.8069C20.0187 55.8069 19.2991 55.0882 19.2991 53.3477C19.2991 45.225 19.2991 37.1024 19.2991 28.9797V28.291C19.5294 28.2785 19.6558 28.2647 19.781 28.2647C26.1849 28.2647 32.5875 28.2597 38.9914 28.2772C39.273 28.2772 39.5909 28.4175 39.8274 28.584C40.8549 29.3102 41.8736 30.0515 42.8648 30.8266C43.2953 31.1634 43.7396 31.2861 44.2765 31.2849C49.3663 31.2724 54.4562 31.2811 59.546 31.2724C59.9452 31.2724 60.1717 31.2961 60.1705 31.812C60.153 39.0582 60.1617 46.3044 60.1555 53.5518C60.1555 55.0344 59.367 55.8044 57.8777 55.8082C55.7615 55.8144 53.6452 55.8082 51.5289 55.8119C51.2749 55.8119 51.0145 55.8044 50.7655 55.852C50.0997 55.9785 49.7543 56.6897 50.0647 57.2907C50.2924 57.7315 50.6892 57.8605 51.1635 57.8592C53.4074 57.8529 55.6513 57.8592 57.8953 57.8554C60.4508 57.8504 62.2054 56.1237 62.2079 53.5643C62.2167 43.4708 62.2167 33.376 62.2079 23.2824V23.2774ZM45.8872 26.1448C45.3002 26.1611 44.8384 25.7066 44.8447 25.1218C44.8509 24.5721 45.3102 24.1176 45.8584 24.1176C46.4078 24.1176 46.8671 24.5709 46.8733 25.1218C46.8796 25.6865 46.4516 26.131 45.8859 26.1461L45.8872 26.1448ZM50.9607 26.1448C50.37 26.1398 49.9358 25.679 49.962 25.0855C49.9871 24.532 50.4564 24.0963 51.0045 24.1176C51.5464 24.1389 51.9995 24.6172 51.9857 25.1569C51.9719 25.7078 51.5126 26.1498 50.9595 26.1448H50.9607ZM56.0618 26.1436C55.5062 26.136 55.0594 25.6853 55.0594 25.1331C55.0594 24.5921 55.5224 24.1238 56.0643 24.1176C56.62 24.1113 57.0718 24.5496 57.0843 25.1093C57.0981 25.7028 56.6538 26.1523 56.0618 26.1448V26.1436Z" fill="#4205F0"/>
<path d="M50.967 40.4681C50.967 39.514 50.8156 39.3337 49.9083 39.0031C48.0898 38.3407 46.8083 37.1312 46.1763 35.2742C45.9272 34.5417 45.6669 34.3414 44.8948 34.3389C43.1802 34.3326 41.4657 34.3364 39.7511 34.3364C38.0366 34.3364 36.322 34.3326 34.6075 34.3376C33.7915 34.3401 33.5387 34.528 33.2784 35.283C32.6414 37.1349 31.3623 38.3483 29.5402 39.0056C28.6378 39.3312 28.4914 39.5128 28.4902 40.4769C28.4889 42.9774 28.544 45.4792 28.4739 47.9773C28.4101 50.2336 29.2098 52.1144 30.6803 53.7497C33.0656 56.4005 36.0429 58.2248 39.2255 59.7362C39.5334 59.8827 40.044 59.8401 40.3631 59.6849C43.2478 58.2812 45.951 56.5933 48.2162 54.2906C49.877 52.604 51.0196 50.6756 50.9783 48.1864C50.9345 45.6145 50.9695 43.0401 50.9683 40.4669L50.967 40.4681ZM45.0725 44.6516C44.0913 45.8524 43.0951 47.0394 42.1027 48.2315C41.4607 49.0028 40.8199 49.7741 40.1754 50.5417C39.5534 51.2817 39.014 51.3205 38.3369 50.6506C37.0529 49.3809 35.7789 48.1025 34.5073 46.8203C34.0218 46.3307 33.983 45.7372 34.3834 45.3152C34.7977 44.8795 35.4485 44.8845 35.9391 45.3665C36.9277 46.337 37.9002 47.3262 38.8813 48.3053C38.9577 48.3817 39.0453 48.4456 39.1704 48.5508C40.4933 46.963 41.7773 45.4229 43.0613 43.884C43.2128 43.7024 43.3579 43.5134 43.5194 43.3406C43.9399 42.8873 44.5519 42.8272 44.9849 43.1878C45.4229 43.5534 45.4767 44.1582 45.0725 44.6528V44.6516Z" fill="#4205F0"/>
</g>
<defs>
<filter id="filter0_d_35_147" x="0.244629" y="0" width="77.9636" height="78" filterUnits="userSpaceOnUse" color-interpolation-filters="sRGB">
<feFlood flood-opacity="0" result="BackgroundImageFix"/>
<feColorMatrix in="SourceAlpha" type="matrix" values="0 0 0 0 0 0 0 0 0 0 0 0 0 0 0 0 0 0 127 0" result="hardAlpha"/>
<feOffset/>
<feGaussianBlur stdDeviation="2"/>
<feComposite in2="hardAlpha" operator="out"/>
<feColorMatrix type="matrix" values="0 0 0 0 0.25935 0 0 0 0 0.019618 0 0 0 0 0.941667 0 0 0 0.4 0"/>
<feBlend mode="normal" in2="BackgroundImageFix" result="effect1_dropShadow_35_147"/>
<feBlend mode="normal" in="SourceGraphic" in2="effect1_dropShadow_35_147" result="shape"/>
</filter>
<filter id="filter1_d_35_147" x="7.23792" y="9" width="64.9766" height="60.8264" filterUnits="userSpaceOnUse" color-interpolation-filters="sRGB">
<feFlood flood-opacity="0" result="BackgroundImageFix"/>
<feColorMatrix in="SourceAlpha" type="matrix" values="0 0 0 0 0 0 0 0 0 0 0 0 0 0 0 0 0 0 127 0" result="hardAlpha"/>
<feOffset/>
<feGaussianBlur stdDeviation="5"/>
<feComposite in2="hardAlpha" operator="out"/>
<feColorMatrix type="matrix" values="0 0 0 0 0.25935 0 0 0 0 0.019618 0 0 0 0 0.941667 0 0 0 0.3 0"/>
<feBlend mode="normal" in2="BackgroundImageFix" result="effect1_dropShadow_35_147"/>
<feBlend mode="normal" in="SourceGraphic" in2="effect1_dropShadow_35_147" result="shape"/>
</filter>
<radialGradient id="paint0_radial_35_147" cx="0" cy="0" r="1" gradientUnits="userSpaceOnUse" gradientTransform="translate(39.2264 39) rotate(86.5953) scale(58.904 58.8735)">
<stop stop-color="#FDFBFB"/>
<stop offset="1" stop-color="#FDFBFB" stop-opacity="0"/>
</radialGradient>
</defs>
</svg>
