<svg width="78" height="78" viewBox="0 0 78 78" fill="none" xmlns="http://www.w3.org/2000/svg">
<g filter="url(#filter0_d_189_2580)">
<rect x="4" y="4" width="69.9636" height="70" rx="4" fill="url(#paint0_radial_189_2580)" shape-rendering="crispEdges"/>
</g>
<g filter="url(#filter1_d_189_2580)">
<path d="M21.6815 25.4907C22.8944 25.5368 24.3861 25.4023 25.871 25.5565C29.5595 25.9395 32.3338 27.7739 34.2851 30.8949C37.1458 35.4683 40.0085 40.0407 42.8574 44.6219C44.0349 46.5153 45.7083 47.4895 47.9454 47.4777C48.4855 47.4748 49.0276 47.4463 49.5648 47.4875C49.9576 47.517 50.0116 47.3687 50.0057 47.024C49.9841 45.879 50.0038 44.7339 49.9949 43.5888C49.99 42.9505 50.1805 42.4231 50.7845 42.1295C51.3924 41.8329 51.9256 42.0244 52.4118 42.429C55.076 44.6484 57.7423 46.8649 60.4017 49.0912C61.2001 49.76 61.1991 50.6929 60.4007 51.3607C57.7286 53.5969 55.0505 55.8241 52.3725 58.0534C51.8962 58.4492 51.3688 58.6063 50.7835 58.3205C50.2021 58.0367 49.994 57.5309 49.9959 56.9093C49.9999 55.7475 49.9832 54.5858 50.0057 53.425C50.0126 53.0724 49.9439 52.9575 49.5619 52.9644C48.189 52.989 46.8131 53.0322 45.4559 52.7405C42.2908 52.06 39.9123 50.2893 38.2114 47.5573C35.3507 42.9642 32.4762 38.38 29.6116 33.79C28.4518 31.9309 26.7911 30.9862 24.5933 30.9892C22.204 30.9931 19.8157 30.9823 17.4263 30.999C17.0797 31.0009 16.9962 30.9135 17.0001 30.5708C17.0198 29.0005 17.0188 27.4302 17.0001 25.8599C16.9962 25.5506 17.0816 25.4818 17.3802 25.4858C18.7217 25.5025 20.0631 25.4936 21.6796 25.4936L21.6815 25.4907Z" fill="#4205F0"/>
<path d="M41.1152 36.6388C40.0605 34.9516 39.0402 33.3155 38.012 31.6853C37.8961 31.5017 37.9265 31.3671 38.0287 31.1963C40.2078 27.5637 43.3828 25.6094 47.6449 25.4935C48.3146 25.4749 48.9863 25.4758 49.6571 25.4975C49.9419 25.5063 50.0067 25.412 50.0037 25.142C49.99 23.9645 50.0037 22.787 49.9949 21.6095C49.991 20.9732 50.1736 20.4448 50.7786 20.1473C51.4091 19.8369 51.9462 20.052 52.4441 20.4674C55.0809 22.6672 57.7207 24.864 60.3555 27.0658C61.205 27.7758 61.2109 28.695 60.3702 29.3981C57.7354 31.5999 55.0966 33.7977 52.4569 35.9955C51.9649 36.405 51.4267 36.6476 50.7904 36.3402C50.1638 36.0368 49.9871 35.4898 49.9929 34.8357C50.0037 33.675 49.9998 32.5132 49.991 31.3524C49.99 31.2218 50.1108 30.9832 49.8191 30.991C48.5817 31.0254 47.3326 30.8634 46.1139 31.2277C44.6928 31.6529 43.6607 32.5525 42.8918 33.7918C42.3153 34.7218 41.7339 35.6489 41.1152 36.6398V36.6388Z" fill="#4205F0"/>
<path d="M31.391 41.8228C32.4477 43.5129 33.4661 45.148 34.4933 46.7782C34.6092 46.9618 34.5797 47.0954 34.4766 47.2672C32.2984 50.8988 29.1215 52.8698 24.8633 52.9631C22.3788 53.0171 19.8922 52.968 17.4077 52.9808C17.0954 52.9827 16.9981 52.912 17.0021 52.584C17.0207 51.0314 17.0217 49.4778 17.0021 47.9252C16.9972 47.5707 17.0669 47.4627 17.4469 47.4656C19.8009 47.4862 22.1558 47.4656 24.5108 47.4784C26.7852 47.4902 28.4969 46.5268 29.6715 44.5833C30.2204 43.6759 30.792 42.7822 31.392 41.8218L31.391 41.8228Z" fill="#4205F0"/>
</g>
<defs>
<filter id="filter0_d_189_2580" x="0" y="0" width="77.9636" height="78" filterUnits="userSpaceOnUse" color-interpolation-filters="sRGB">
<feFlood flood-opacity="0" result="BackgroundImageFix"/>
<feColorMatrix in="SourceAlpha" type="matrix" values="0 0 0 0 0 0 0 0 0 0 0 0 0 0 0 0 0 0 127 0" result="hardAlpha"/>
<feOffset/>
<feGaussianBlur stdDeviation="2"/>
<feComposite in2="hardAlpha" operator="out"/>
<feColorMatrix type="matrix" values="0 0 0 0 0.25935 0 0 0 0 0.019618 0 0 0 0 0.941667 0 0 0 0.4 0"/>
<feBlend mode="normal" in2="BackgroundImageFix" result="effect1_dropShadow_189_2580"/>
<feBlend mode="normal" in="SourceGraphic" in2="effect1_dropShadow_189_2580" result="shape"/>
</filter>
<filter id="filter1_d_189_2580" x="7" y="10" width="64" height="58.4668" filterUnits="userSpaceOnUse" color-interpolation-filters="sRGB">
<feFlood flood-opacity="0" result="BackgroundImageFix"/>
<feColorMatrix in="SourceAlpha" type="matrix" values="0 0 0 0 0 0 0 0 0 0 0 0 0 0 0 0 0 0 127 0" result="hardAlpha"/>
<feOffset/>
<feGaussianBlur stdDeviation="5"/>
<feComposite in2="hardAlpha" operator="out"/>
<feColorMatrix type="matrix" values="0 0 0 0 0.25935 0 0 0 0 0.019618 0 0 0 0 0.941667 0 0 0 0.3 0"/>
<feBlend mode="normal" in2="BackgroundImageFix" result="effect1_dropShadow_189_2580"/>
<feBlend mode="normal" in="SourceGraphic" in2="effect1_dropShadow_189_2580" result="shape"/>
</filter>
<radialGradient id="paint0_radial_189_2580" cx="0" cy="0" r="1" gradientUnits="userSpaceOnUse" gradientTransform="translate(38.9818 39) rotate(86.5953) scale(58.904 58.8735)">
<stop stop-color="#FDFBFB"/>
<stop offset="1" stop-color="#FDFBFB" stop-opacity="0"/>
</radialGradient>
</defs>
</svg>
